# xmcd
#
# Track frame offsets:
#	150
#	12018
#	24931
#	36905
#	49032
#	60917
#	72017
#	80998
#	93515
#	105146
#	118495
#	131441
#	143358
#	157957
#	171091
#	183682
#	195640
#	207613
#	221990
#	234555
#	247408
#
# Disc length: 3458 seconds
#
# Revision: 1
# Processed by: cddbd v1.5.1PL2 Copyright (c) Steve Scherf et al.
# Submitted via: audiograbber 1.83.01
#
DISCID=2a0d8015
DTITLE=Various Artist - (IEDS10001-8) Cradle Of Country and Western Music
DYEAR=1955
DGENRE=Country
TTITLE0=Tennessee Ernie Ford - Smokey Mountain Boogie
TTITLE1=Bob Wills - What´s The Matter With The Mill
TTITLE2=Bill Haley - Roses Of My Heart
TTITLE3=Hank Williams - Lost Highway
TTITLE4=Gene Autry - Blueberry Hill
TTITLE5=Hank Penny - I´m Gonna Change Things
TTITLE6=Johnny Bond - Ten Years
TTITLE7=Jack Guthrie - Oklahoma Hills
TTITLE8=Link Davis - Texas Swing
TTITLE9=Alfred Karnes - We Shall Be Reunited
TTITLE10=Sons Of The Pioneers - Cigarettes, Whisky and Wild Wild Women
TTITLE11=Jimmie Widener - That´s My Lindy Lou
TTITLE12=Alfred Karnes - Where We´ll Never Row Old
TTITLE13=Curley Williams - Georgia Boogie
TTITLE14=Molly O´Day - When God Comes
TTITLE15=Jack Rivers - Dear Oakie
TTITLE16=Jesse james - Rag Mop
TTITLE17=Joe´s Acadians - Ammend La Nouville A Mamere
TTITLE18=Sonny Hall - Better Make Up Your Mind
TTITLE19=Jesse Ashlock - My Bank Account Is Gone
TTITLE20=Cliff Bruner - When You´re Smiling
EXTD=
EXTT0=
EXTT1=
EXTT2=
EXTT3=
EXTT4=
EXTT5=
EXTT6=
EXTT7=
EXTT8=
EXTT9=
EXTT10=
EXTT11=
EXTT12=
EXTT13=
EXTT14=
EXTT15=
EXTT16=
EXTT17=
EXTT18=
EXTT19=
EXTT20=
PLAYORDER=
